<?xml version="1.0" standalone="no"?>
<!DOCTYPE svg PUBLIC "-//W3C//DTD SVG 20010904//EN"
 "http://www.w3.org/TR/2001/REC-SVG-20010904/DTD/svg10.dtd">
<svg version="1.0" xmlns="http://www.w3.org/2000/svg"
 width="260.000000pt" height="260.000000pt" viewBox="0 0 260.000000 260.000000"
 preserveAspectRatio="xMidYMid meet">
<metadata>
Created by potrace 1.14, written by Peter Selinger 2001-2017
</metadata>
<g transform="translate(0.000000,260.000000) scale(0.100000,-0.100000)"
fill="#000000" stroke="none">
<path d="M0 1300 l0 -1300 1300 0 1300 0 0 1300 0 1300 -1300 0 -1300 0 0
-1300z m1580 415 l0 -45 -120 0 -120 0 0 -355 0 -355 -50 0 -50 0 -2 353 -3
352 -112 3 -113 3 0 44 0 45 285 0 285 0 0 -45z m-1003 -130 c109 -58 231
-122 271 -143 69 -35 72 -38 72 -72 0 -35 -2 -36 -147 -122 -82 -47 -205 -120
-275 -162 l-128 -75 0 52 0 52 193 109 c105 60 205 116 220 126 l29 17 -34 20
c-18 11 -112 60 -208 108 -96 48 -181 92 -187 97 -12 9 -19 98 -9 98 3 0 94
-47 203 -105z m1653 -700 l0 -45 -280 0 -280 0 0 45 0 45 280 0 280 0 0 -45z"/>
</g>
</svg>
